<svg width="15" height="20" viewBox="0 0 15 20" fill="none" xmlns="http://www.w3.org/2000/svg">
<path d="M14.9992 5.7338L15 17.0491C15 17.586 14.764 18.074 14.3836 18.4274C14.0032 18.7808 13.4779 19 12.8999 19H2.10014C1.52215 19 0.996796 18.7803 0.61664 18.4272C0.236485 18.074 0 17.586 0 17.0491V2.95092C0 2.414 0.236485 1.92597 0.61664 1.57283C0.996796 1.21968 1.52215 1 2.10014 1H9.90795C10.0722 1 10.2192 1.06827 10.3179 1.17622L14.8421 5.3823C14.9461 5.47963 14.998 5.60671 14.9992 5.7338ZM3.15694 15.8619C2.85969 15.8619 2.61862 15.6379 2.61862 15.3618C2.61862 15.0856 2.85969 14.8617 3.15694 14.8617H11.8425C12.1398 14.8617 12.3809 15.0856 12.3809 15.3618C12.3809 15.6379 12.1398 15.8619 11.8425 15.8619H3.15694ZM3.15694 12.821C2.85969 12.821 2.61862 12.5971 2.61862 12.321C2.61862 12.0448 2.85969 11.8209 3.15694 11.8209H11.8425C12.1398 11.8209 12.3809 12.0448 12.3809 12.321C12.3809 12.5971 12.1398 12.821 11.8425 12.821H3.15694ZM3.15694 9.7802C2.85969 9.7802 2.61862 9.55626 2.61862 9.28013C2.61862 9.00399 2.85969 8.78006 3.15694 8.78006H11.8425C12.1398 8.78006 12.3809 9.00399 12.3809 9.28013C12.3809 9.55626 12.1398 9.7802 11.8425 9.7802H3.15694ZM13.9234 6.23387H11.441C10.8735 6.23387 10.3557 6.01726 9.97991 5.66884L9.97788 5.66695C9.6023 5.31687 9.36963 4.83641 9.36963 4.30964V2.00014H2.10014C1.8189 2.00014 1.56283 2.10739 1.37746 2.27959C1.19209 2.45179 1.07664 2.68966 1.07664 2.95092V17.0491C1.07664 17.3103 1.19209 17.5482 1.37746 17.7204C1.56283 17.8926 1.8189 17.9999 2.10014 17.9999H12.8999C13.1811 17.9999 13.4374 17.8928 13.6228 17.7206C13.8082 17.5484 13.9234 17.3103 13.9234 17.0491V6.23387ZM10.4463 2.70573V4.30964C10.4463 4.56476 10.5579 4.79601 10.7367 4.96207L10.7387 4.96396C10.9175 5.13002 11.1664 5.23372 11.441 5.23372H13.1653L10.4463 2.70573Z" fill="var(--color-heading), #A5A5A5"/>
</svg>
