<svg width="250" height="250" viewBox="0 0 250 250" fill="none" xmlns="http://www.w3.org/2000/svg">
<g clip-path="url(#clip0_38_10)">
<rect width="250" height="250" fill="white"/>
<rect width="250" height="250" fill="#C69C32"/>
<path d="M43.2273 185.045C42.2273 185.045 41.1363 184.864 39.9546 184.5C38.7727 184.137 37.8182 183.773 37.0909 183.409L36.1364 182.864C35.0455 181.591 34.5 179.909 34.5 177.818C34.5 175.818 35.3636 174.182 37.0909 172.909C38.7273 171.636 40.6818 171 42.9545 171C44.5909 171 46.4545 172 48.5455 174C50.6364 175.909 52.2273 176.864 53.3182 176.864C55.8636 176.864 58.4545 174.364 61.0909 169.364C62.3636 166.909 63.4091 163.409 64.2273 158.864C65.0455 154.409 65.4545 149.318 65.4545 143.591V82.7727C65.4545 79.9545 65.3636 77.5454 65.1818 75.5454C65.0909 73.4545 64.8636 71.8182 64.5 70.6364C64.3182 70.0909 63.6364 69.6364 62.4545 69.2728C61.2727 68.8182 60 68.4545 58.6364 68.1818C57.2727 67.9091 56.1818 67.7727 55.3637 67.7727C55 67.7727 54.8182 67.1818 54.8182 66C54.8182 64.9091 55 64.1818 55.3637 63.8182C56.1818 63.8182 57.5455 63.9091 59.4545 64.0909C61.4545 64.1818 63.5909 64.3182 65.8636 64.5C68.1364 64.5909 70.0909 64.6364 71.7273 64.6364C74.6364 64.6364 77.5455 64.5454 80.4546 64.3636C83.3637 64.0909 85.7272 63.9091 87.5454 63.8182C87.7273 64.5454 87.8182 65.2273 87.8182 65.8636C87.8182 67.1364 87.6364 67.7727 87.2727 67.7727C86.7273 67.7727 85.7727 67.9545 84.4091 68.3182C83.0455 68.5909 81.7727 68.9546 80.5909 69.4091C79.4091 69.7727 78.7273 70.1818 78.5455 70.6364C77.7272 73.7273 77.3182 77.9545 77.3182 83.3182V142.5C77.3182 148.227 76.4546 153.637 74.7273 158.727C73.0909 163.909 70.7273 168.455 67.6364 172.363C64.6363 176.273 61.0455 179.364 56.8636 181.637C52.6818 183.909 48.1364 185.045 43.2273 185.045ZM111.136 155.046C106.955 155.046 103.5 153.955 100.773 151.773C98.0454 149.5 96.6816 146.136 96.6816 141.682C96.6816 136.227 100.227 131.682 107.318 128.045C110.409 126.5 113.455 125.273 116.455 124.363C119.545 123.455 122.637 122.409 125.727 121.227C126.546 120.955 126.955 120.273 126.955 119.182V108.955C126.955 106.045 126.045 103.818 124.227 102.273C122.409 100.636 120.227 99.8182 117.682 99.8182C114.955 99.8182 112.682 100.773 110.863 102.682C109.045 104.5 108.136 106.909 108.136 109.909C108.136 113.091 106.273 114.682 102.546 114.682C99.9089 114.682 98.1361 113.818 97.2273 112.091C97.2273 110.182 98 108.227 99.5453 106.227C101.182 104.136 103.273 102.227 105.818 100.5C108.364 98.7727 111.136 97.3636 114.136 96.2727C117.227 95.1818 120.273 94.6364 123.272 94.6364C128.273 94.6364 131.864 95.8636 134.045 98.3182C136.227 100.682 137.318 104.545 137.318 109.909V141.409C137.318 143.318 137.818 144.909 138.818 146.182C139.818 147.455 141.182 148.091 142.909 148.091C144.091 148.091 145.682 147.455 147.682 146.182C148.046 146.182 148.227 146.545 148.227 147.273C148.227 148.454 148 149.409 147.545 150.136C143.818 153.318 140.636 154.909 138 154.909C135.909 154.909 133.909 154.046 132 152.318C130.091 150.591 128.773 148.773 128.046 146.864C127.591 147.227 127 147.727 126.273 148.363C125.636 148.909 125.091 149.364 124.636 149.727C122.727 151.182 120.636 152.455 118.364 153.545C116.182 154.545 113.773 155.046 111.136 155.046ZM116.318 147.273C118.863 147.273 121.273 146.545 123.545 145.091C125.818 143.636 126.955 142.091 126.955 140.454V126.409C124.591 127.318 122.318 128.137 120.136 128.864C118.045 129.591 116.364 130.182 115.091 130.637C113.455 131.273 111.864 132.409 110.318 134.046C108.864 135.682 108.136 137.545 108.136 139.636C108.136 142.364 108.954 144.318 110.591 145.5C112.318 146.682 114.227 147.273 116.318 147.273ZM153.546 154.5C153.182 154.136 153 153.364 153 152.182C153 151.091 153.182 150.545 153.546 150.545C154.273 150.545 155.272 150.409 156.545 150.136C157.818 149.863 159 149.5 160.091 149.045C161.182 148.591 161.773 148.182 161.864 147.818C162.227 146.545 162.454 145.091 162.545 143.455C162.727 141.818 162.818 140.091 162.818 138.272V112.5C162.818 109.045 162.182 106.591 160.909 105.136C160 104.045 158.909 103.318 157.636 102.955C156.455 102.591 155.364 102.409 154.364 102.409C153.455 102.318 153 102.182 153 102C153 99.8182 153.273 98.6818 153.818 98.5909C158.637 97.8636 162.545 97.2273 165.546 96.6818C168.545 96.0455 170.409 95.6363 171.136 95.4546L173.318 94.9091C173.682 94.8182 173.909 95.1818 174 96C174.091 96.8182 174.091 97.4091 174 97.7727C173.818 99.0454 173.682 100.136 173.591 101.045C173.5 101.955 173.454 102.682 173.454 103.227C173.454 103.591 173.546 103.773 173.727 103.773C173.818 103.773 173.955 103.682 174.136 103.5C176.227 101.318 179.046 99.2727 182.591 97.3636C186.227 95.3636 189.682 94.3637 192.954 94.3637C199.318 94.3637 203.773 96.6364 206.318 101.182C208.864 105.727 210.136 113.091 210.136 123.273V135.682C210.136 138.318 210.227 140.636 210.409 142.636C210.591 144.636 210.863 146.364 211.227 147.818C211.409 148.182 212.046 148.591 213.137 149.045C214.228 149.5 215.409 149.863 216.682 150.136C217.955 150.409 218.863 150.545 219.409 150.545C219.682 150.545 219.864 151.091 219.954 152.182C220.046 153.273 220 154.046 219.818 154.5L205.227 153.818L190.909 154.5C190.546 154.136 190.364 153.364 190.364 152.182C190.364 151.091 190.546 150.545 190.909 150.545C191.636 150.545 192.591 150.409 193.773 150.136C194.955 149.863 196.046 149.5 197.045 149.045C198.045 148.591 198.591 148.182 198.682 147.818C199.046 146.545 199.273 145.091 199.364 143.455C199.545 141.818 199.636 140.091 199.636 138.272V124.636C199.636 116.182 198.546 110.409 196.364 107.318C194.182 104.227 190.637 102.682 185.727 102.682C183.818 102.682 181.909 103.227 180 104.318C178.091 105.318 176.5 106.5 175.227 107.864C173.955 109.227 173.318 110.5 173.318 111.682V135.682C173.318 138.318 173.409 140.636 173.591 142.636C173.773 144.636 174.045 146.364 174.409 147.818C174.591 148.182 175.227 148.591 176.318 149.045C177.409 149.5 178.591 149.863 179.864 150.136C181.137 150.409 182.045 150.545 182.591 150.545C182.863 150.545 183.046 151.091 183.136 152.182C183.227 153.273 183.182 154.046 183 154.5L168.409 153.818L153.546 154.5Z" fill="white"/>
</g>
<defs>
<clipPath id="clip0_38_10">
<rect width="250" height="250" fill="white"/>
</clipPath>
</defs>
</svg>
