<svg width="50" height="50" viewBox="0 0 50 50" fill="none" xmlns="http://www.w3.org/2000/svg">
<path d="M42.7107 7.32234C45.0339 9.6438 46.8768 12.3998 48.1342 15.4329C48.943 17.3841 49.4993 19.4254 49.7933 21.5074C49.9538 22.6444 49.0338 23.6111 47.8855 23.6111L47.2137 23.6111C47.0606 21.1679 46.5043 18.7635 45.5644 16.4959C44.4469 13.7998 42.8088 11.35 40.7439 9.28652C38.6789 7.223 36.2274 5.58612 33.5294 4.46935C30.8314 3.35258 27.9396 2.77778 25.0193 2.77778L23.6147 2.77778L23.6147 1.40465C23.6147 0.628885 24.2436 3.93416e-06 25.0193 4.00198e-06V4.00198e-06C28.3049 4.43256e-06 31.5583 0.646651 34.5938 1.90302C37.6293 3.15939 40.3874 5.00087 42.7107 7.32234Z" fill="black"/>
<path d="M7.28935 42.6777C4.96609 40.3562 3.12318 37.6002 1.86584 34.5671C1.05701 32.6159 0.500692 30.5746 0.206719 28.4926C0.0461789 27.3556 0.966197 26.3889 2.11447 26.3889L2.7863 26.3889C2.93941 28.8321 3.49568 31.2365 4.43558 33.5041C5.55314 36.2002 7.19117 38.65 9.25614 40.7135C11.3211 42.777 13.7726 44.4139 16.4706 45.5307C19.1686 46.6474 22.0604 47.2222 24.9807 47.2222L26.3853 47.2222L26.3853 48.5954C26.3853 49.3711 25.7564 50 24.9807 50V50C21.6951 50 18.4417 49.3534 15.4062 48.097C12.3707 46.8406 9.61261 44.9991 7.28935 42.6777Z" fill="black"/>
<path d="M2.74283 26.3889L2.74283 29.1667L48.7887 29.1667C49.2967 29.1667 49.724 28.7858 49.7821 28.2811L49.8717 27.5033C49.94 26.9096 49.4758 26.3889 48.8782 26.3889L2.74283 26.3889Z" fill="black"/>
<path d="M1.42141 20.8333C0.913384 20.8333 0.48609 21.2142 0.427974 21.7189L0.338411 22.4967C0.270047 23.0904 0.734241 23.6111 1.33185 23.6111L47.2463 23.6111L47.2463 20.8333L1.42141 20.8333Z" fill="black"/>
<path d="M26.3853 2.77778L23.6039 2.77778L23.6038 47.2222L26.3853 47.2222L26.3853 2.77778Z" fill="black"/>
</svg>
